HIERARCHY
ROOT hip
{
  OFFSET 0.00112043 5.09927 -9.65472
  CHANNELS 6 Xposition Yposition Zposition Zrotation Xrotation Yrotation
  JOINT abdomen
  {
    OFFSET 0 -1.186 -1.5018
    CHANNELS 3 Zrotation Xrotation Yrotation
    JOINT abdomen2
    {
      OFFSET 0 9.964 0.2134
      CHANNELS 3 Zrotation Xrotation Yrotation
      JOINT chest
      {
        OFFSET 0 13.134 -3.2573
        CHANNELS 3 Zrotation Xrotation Yrotation
        JOINT neck
        {
          OFFSET 0 20.686 -1.6905
          CHANNELS 3 Zrotation Xrotation Yrotation
          JOINT head
          {
            OFFSET 0 7.238 -0.1237
            CHANNELS 3 Zrotation Xrotation Yrotation
            End Site
            {
              OFFSET 0 0 0
            }
          }
        }
        JOINT lCollar
        {
          OFFSET 1.7069 20.075 5.0056
          CHANNELS 3 Zrotation Xrotation Yrotation
          JOINT lShldr
          {
            OFFSET 13.6458 -0.047 -4.849
            CHANNELS 3 Zrotation Xrotation Yrotation
            JOINT lForeArm
            {
              OFFSET 28.3255 -0.9759 2.2888
              CHANNELS 3 Zrotation Xrotation Yrotation
              JOINT lHand
              {
                OFFSET 22.1583 -0.53 10.8316
                CHANNELS 3 Zrotation Xrotation Yrotation
                JOINT lThumb1
                {
                  OFFSET 0.786 0.112 2.5817
                  CHANNELS 3 Zrotation Xrotation Yrotation
                  JOINT lThumb2
                  {
                    OFFSET 0.3601 -0.878 4.2331
                    CHANNELS 3 Zrotation Xrotation Yrotation
                    JOINT lThumb2_End
                    {
                      OFFSET 1.8127 -1.216 2.2227
                      CHANNELS 3 Zrotation Xrotation Yrotation
                      End Site
                      {
                        OFFSET 0.0181 -0.0122 0.0222
                      }
                    }
                  }
                }
                JOINT lCarpal1
                {
                  OFFSET 0.9571 1.114 1.7695
                  CHANNELS 3 Zrotation Xrotation Yrotation
                  JOINT lIndex1
                  {
                    OFFSET 4.1246 0.487 4.1451
                    CHANNELS 3 Zrotation Xrotation Yrotation
                    JOINT lIndex2
                    {
                      OFFSET 3.4052 -1.454 2.7682
                      CHANNELS 3 Zrotation Xrotation Yrotation
                      JOINT lIndex2_End
                      {
                        OFFSET 1.4531 -1.795 1.2713
                        CHANNELS 3 Zrotation Xrotation Yrotation
                        End Site
                        {
                          OFFSET 0.0145 -0.0179 0.0127
                        }
                      }
                    }
                  }
                  JOINT lMid1
                  {
                    OFFSET 5.6954 0.21 2.1184
                    CHANNELS 3 Zrotation Xrotation Yrotation
                    JOINT lMid2
                    {
                      OFFSET 3.9766 -1.54 2.3863
                      CHANNELS 3 Zrotation Xrotation Yrotation
                      JOINT lMid2_End
                      {
                        OFFSET 1.4042 -1.926 1.125
                        CHANNELS 3 Zrotation Xrotation Yrotation
                        End Site
                        {
                          OFFSET 0.014 -0.0193 0.0113
                        }
                      }
                    }
                  }
                }
                JOINT lCarpal2
                {
                  OFFSET 2.0956 0.66 -0.3894
                  CHANNELS 3 Zrotation Xrotation Yrotation
                  JOINT lRing1
                  {
                    OFFSET 5.0395 -0.09 2.4971
                    CHANNELS 3 Zrotation Xrotation Yrotation
                    JOINT lRing2
                    {
                      OFFSET 3.7921 -1.552 1.4806
                      CHANNELS 3 Zrotation Xrotation Yrotation
                      JOINT lRing2_End
                      {
                        OFFSET 1.4655 -1.808 0.9609
                        CHANNELS 3 Zrotation Xrotation Yrotation
                        End Site
                        {
                          OFFSET 0.0147 -0.0181 0.0096
                        }
                      }
                    }
                  }
                  JOINT lPinky1
                  {
                    OFFSET 4.9141 -1.269 0.3591
                    CHANNELS 3 Zrotation Xrotation Yrotation
                    JOINT lPinky2
                    {
                      OFFSET 3.1477 -1.685 0.8462
                      CHANNELS 3 Zrotation Xrotation Yrotation
                      JOINT lPinky2_End
                      {
                        OFFSET 0.8055 -1.585 0.7955
                        CHANNELS 3 Zrotation Xrotation Yrotation
                        End Site
                        {
                          OFFSET 0.0081 -0.0158 0.008
                        }
                      }
                    }
                  }
                }
              }
            }
          }
        }
        JOINT rCollar
        {
          OFFSET -1.7069 20.075 5.0056
          CHANNELS 3 Zrotation Xrotation Yrotation
          JOINT rShldr
          {
            OFFSET -13.6458 -0.047 -4.849
            CHANNELS 3 Zrotation Xrotation Yrotation
            JOINT rForeArm
            {
              OFFSET -28.3255 -0.9759 2.2888
              CHANNELS 3 Zrotation Xrotation Yrotation
              JOINT rHand
              {
                OFFSET -22.1583 -0.53 10.8316
                CHANNELS 3 Zrotation Xrotation Yrotation
                JOINT rThumb1
                {
                  OFFSET -0.786 0.112 2.5817
                  CHANNELS 3 Zrotation Xrotation Yrotation
                  JOINT rThumb2
                  {
                    OFFSET -0.3601 -0.878 4.2331
                    CHANNELS 3 Zrotation Xrotation Yrotation
                    JOINT rThumb2_End
                    {
                      OFFSET -1.8127 -1.216 2.2227
                      CHANNELS 3 Zrotation Xrotation Yrotation
                      End Site
                      {
                        OFFSET -0.0181 -0.0122 0.0222
                      }
                    }
                  }
                }
                JOINT rCarpal1
                {
                  OFFSET -0.9571 1.114 1.7695
                  CHANNELS 3 Zrotation Xrotation Yrotation
                  JOINT rIndex1
                  {
                    OFFSET -4.1246 0.487 4.1451
                    CHANNELS 3 Zrotation Xrotation Yrotation
                    JOINT rIndex2
                    {
                      OFFSET -3.4052 -1.454 2.7682
                      CHANNELS 3 Zrotation Xrotation Yrotation
                      JOINT rIndex2_End
                      {
                        OFFSET -1.4531 -1.795 1.2713
                        CHANNELS 3 Zrotation Xrotation Yrotation
                        End Site
                        {
                          OFFSET -0.0145 -0.018 0.0127
                        }
                      }
                    }
                  }
                  JOINT rMid1
                  {
                    OFFSET -5.6954 0.21 2.1184
                    CHANNELS 3 Zrotation Xrotation Yrotation
                    JOINT rMid2
                    {
                      OFFSET -3.9766 -1.54 2.3863
                      CHANNELS 3 Zrotation Xrotation Yrotation
                      JOINT rMid2_End
                      {
                        OFFSET -1.4042 -1.926 1.125
                        CHANNELS 3 Zrotation Xrotation Yrotation
                        End Site
                        {
                          OFFSET -0.014 -0.0193 0.0113
                        }
                      }
                    }
                  }
                }
                JOINT rCarpal2
                {
                  OFFSET -2.0956 0.66 -0.3894
                  CHANNELS 3 Zrotation Xrotation Yrotation
                  JOINT rRing1
                  {
                    OFFSET -5.0395 -0.09 2.4971
                    CHANNELS 3 Zrotation Xrotation Yrotation
                    JOINT rRing2
                    {
                      OFFSET -3.7921 -1.552 1.4806
                      CHANNELS 3 Zrotation Xrotation Yrotation
                      JOINT rRing2_End
                      {
                        OFFSET -1.4655 -1.808 0.9609
                        CHANNELS 3 Zrotation Xrotation Yrotation
                        End Site
                        {
                          OFFSET -0.0147 -0.0181 0.0096
                        }
                      }
                    }
                  }
                  JOINT rPinky1
                  {
                    OFFSET -4.9141 -1.269 0.3592
                    CHANNELS 3 Zrotation Xrotation Yrotation
                    JOINT rPinky2
                    {
                      OFFSET -3.1477 -1.685 0.8462
                      CHANNELS 3 Zrotation Xrotation Yrotation
                      JOINT rPinky2_End
                      {
                        OFFSET -0.8055 -1.585 0.7955
                        CHANNELS 3 Zrotation Xrotation Yrotation
                        End Site
                        {
                          OFFSET -0.0081 -0.0158 0.008
                        }
                      }
                    }
                  }
                }
              }
            }
          }
        }
      }
    }
  }
  JOINT lThigh
  {
    OFFSET 8.367 -8.2066 0.5982
    CHANNELS 3 Zrotation Xrotation Yrotation
    JOINT lShin
    {
      OFFSET 2.1923 -43.463 -0.4932
      CHANNELS 3 Zrotation Xrotation Yrotation
      JOINT lFoot
      {
        OFFSET 0.7333 -45.8593 -2.6451
        CHANNELS 3 Zrotation Xrotation Yrotation
        End Site
        {
          OFFSET 2.6618 -4.2699 12.3931
        }
      }
    }
  }
  JOINT rThigh
  {
    OFFSET -8.367 -8.2066 0.5982
    CHANNELS 3 Zrotation Xrotation Yrotation
    JOINT rShin
    {
      OFFSET -2.1923 -43.463 -0.4931
      CHANNELS 3 Zrotation Xrotation Yrotation
      JOINT rFoot
      {
        OFFSET -0.7333 -45.8593 -2.6451
        CHANNELS 3 Zrotation Xrotation Yrotation
        End Site
        {
          OFFSET -2.6618 -4.2699 12.3931
        }
      }
    }
  }
}
MOTION
Frames:	4
Frame Time:	0.0333333
0 91.7903 2.51682 0 0 -0 0 0 -0 0 0 -0 0 0 -0 0 0 -0 0 0 -0 0 0 -0 1.66051 0.0835086 5.75766 -0.0175111 0.895433 15.7816 7.95139e-016 -1.98785e-016 -0 5.46658e-016 -3.97569e-016 -0 5.96354e-016 0 -0 3.97569e-016 1.98785e-016 9.54166e-015 1.49089e-016 -3.97569e-016 -0 6.4605e-016 0 3.18055e-015 5.96354e-016 0 3.18055e-015 8.94531e-016 -1.98785e-016 6.36111e-015 6.4605e-016 0 3.18055e-015 5.96354e-016 0 3.18055e-015 8.94531e-016 -1.98785e-016 6.36111e-015 1.49089e-016 -3.97569e-016 -0 6.4605e-016 0 3.18055e-015 5.96354e-016 0 3.18055e-015 8.94531e-016 -1.98785e-016 6.36111e-015 6.4605e-016 0 3.18055e-015 5.96354e-016 0 3.18055e-015 8.94531e-016 -1.98785e-016 6.36111e-015 0 0 -0 -1.4496 0.0636048 -5.0245 -1.74811 1.20616 -16.8394 -1.19271e-015 1.98785e-016 -3.18055e-015 -3.97569e-016 1.98785e-016 -3.18055e-015 -2.98177e-016 1.98785e-016 -3.18055e-015 -2.98177e-016 3.97569e-016 -0 4.96962e-016 0 -6.36111e-015 -9.93923e-017 3.97569e-016 -0 -8.94531e-016 5.96354e-016 -0 -3.97569e-016 3.97569e-016 -0 -9.93923e-017 3.97569e-016 -0 -8.94531e-016 5.96354e-016 -0 -3.97569e-016 3.97569e-016 -0 4.96962e-016 0 -6.36111e-015 -9.93923e-017 3.97569e-016 -0 -8.94531e-016 5.96354e-016 -0 -3.97569e-016 3.97569e-016 -0 -9.93923e-017 3.97569e-016 -0 -8.94531e-016 5.96354e-016 -0 -3.97569e-016 3.97569e-016 -0 -4.66111 -0.998717 0.12318 0.00986924 1.54847 0.176523 4.65186 -0.572283 -0.254274 4.66111 -0.998765 -0.123176 -0.00986867 1.54869 -0.176537 -4.65186 -0.572453 0.25427 
1.09869 49.8006 18.3409 0 34.5509 -0 0.376811 0.0412714 -0.499754 0.753967 0.0792463 -0.999768 0.753967 0.0792446 -0.999768 -9.24903e-005 0.208533 9.89693e-005 -7.9147e-007 0.195616 7.36549e-007 -22.955 31.8451 -5.46705 -89.8805 -53.0005 -55.8839 -99.7598 5.39397 6.87974 153.318 18.7311 -86.9001 9.73228e-007 1.57559e-006 2.84239e-007 -4.35591e-007 7.0441e-007 2.03376e-007 1.27222e-014 6.36111e-015 6.36111e-015 -6.36111e-015 1.59028e-015 -6.36111e-015 9.73228e-007 1.57559e-006 2.84239e-007 -4.35591e-007 7.0441e-007 2.03376e-007 3.18055e-015 6.36111e-015 9.54166e-015 9.73228e-007 1.57559e-006 2.84239e-007 -4.35591e-007 7.0441e-007 2.03376e-007 3.18055e-015 6.36111e-015 9.54166e-015 -6.36111e-015 1.59028e-015 -6.36111e-015 9.73228e-007 1.57559e-006 2.84239e-007 -4.35591e-007 7.0441e-007 2.03376e-007 3.18055e-015 6.36111e-015 9.54166e-015 9.73228e-007 1.57559e-006 2.84239e-007 -4.35591e-007 7.0441e-007 2.03376e-007 3.18055e-015 6.36111e-015 9.54166e-015 22.0401 29.7074 5.67485 90.0814 -52.931 56.8917 97.4501 4.58071 -6.80254 -153.996 19.3121 92.9216 2.17992e-007 3.54269e-007 -9.4679e-008 6.53975e-007 1.06281e-006 -2.84037e-007 2.17992e-007 3.54269e-007 -9.4679e-008 -1.59028e-015 1.59028e-015 -3.18055e-015 2.17992e-007 3.54269e-007 -9.4679e-008 6.53975e-007 1.06281e-006 -2.84037e-007 2.17992e-007 3.54269e-007 -9.4679e-008 2.17992e-007 3.54269e-007 -9.4679e-008 6.53975e-007 1.06281e-006 -2.84037e-007 2.17992e-007 3.54269e-007 -9.4679e-008 -1.59028e-015 1.59028e-015 -3.18055e-015 2.17992e-007 3.54269e-007 -9.4679e-008 6.53975e-007 1.06281e-006 -2.84037e-007 2.17992e-007 3.54269e-007 -9.4679e-008 2.17992e-007 3.54269e-007 -9.4679e-008 6.53975e-007 1.06281e-006 -2.84037e-007 2.17992e-007 3.54269e-007 -9.4679e-008 162.667 -53.5729 159.751 168.039 74.7737 -163.541 2.59366 -0.897038 16.4458 -161.219 -53.6221 -156.43 -167.036 75.7676 162.603 -0.589606 0.353323 -15.2052 
1.03598 52.6545 17.9078 0 30.6723 -0 0.352895 0.4966 -0.474906 0.709934 0.990198 -0.952915 0.709933 0.990208 -0.952915 -0.000110786 0.298194 0.000120943 1.61187e-007 0.280394 -1.40558e-007 -21.7987 29.9857 -5.04593 -80.4454 -52.3869 -49.3715 -93.224 5.35762 7.07783 144.287 22.1766 -86.0855 6.36111e-015 1.59028e-015 9.54166e-015 4.62442e-007 -6.81517e-007 -2.16789e-007 3.18055e-015 -7.95139e-015 -0 6.36111e-015 -6.36111e-015 3.18055e-015 6.36111e-015 1.90833e-014 1.27222e-014 4.62442e-007 -6.81517e-007 -2.16789e-007 3.18055e-015 -3.18055e-015 -0 6.36111e-015 1.90833e-014 1.27222e-014 4.62442e-007 -6.81517e-007 -2.16789e-007 3.18055e-015 -3.18055e-015 -0 6.36111e-015 -6.36111e-015 3.18055e-015 6.36111e-015 1.90833e-014 1.27222e-014 4.62442e-007 -6.81517e-007 -2.16789e-007 3.18055e-015 -3.18055e-015 -0 6.36111e-015 1.90833e-014 1.27222e-014 4.62442e-007 -6.81517e-007 -2.16789e-007 3.18055e-015 -3.18055e-015 -0 20.9279 27.974 5.25237 80.6538 -52.3351 50.3733 90.9635 4.54844 -7.09947 -145.179 23.2925 91.562 0 0 -0 0 0 -0 4.60755e-007 6.85944e-007 -2.07922e-007 -3.18055e-015 0 3.18055e-015 -3.18055e-015 -4.77083e-015 3.18055e-015 6.36111e-015 3.18055e-015 6.36111e-015 4.60755e-007 6.85944e-007 -2.07922e-007 -3.18055e-015 -4.77083e-015 3.18055e-015 6.36111e-015 3.18055e-015 6.36111e-015 4.60755e-007 6.85944e-007 -2.07922e-007 -3.18055e-015 0 3.18055e-015 -3.18055e-015 -4.77083e-015 3.18055e-015 6.36111e-015 3.18055e-015 6.36111e-015 4.60755e-007 6.85944e-007 -2.07922e-007 -3.18055e-015 -4.77083e-015 3.18055e-015 6.36111e-015 3.18055e-015 6.36111e-015 4.60755e-007 6.85944e-007 -2.07922e-007 152.632 -61.911 151.824 161.565 80.7954 -157.748 3.46378 -2.15743 14.0508 -150.576 -61.6499 -148.133 -159.262 81.6938 155.497 -1.64393 -0.906398 -12.8462 
1.03704 52.8514 18.424 0 28.9246 -0 0.348182 0.929635 -0.481515 0.704305 1.8563 -0.968863 0.704305 1.85628 -0.968863 -2.71815e-005 0.394959 2.63289e-005 3.61437e-007 0.371391 -6.02424e-008 -21.7986 29.9858 -5.046 -80.4454 -52.3869 -49.3715 -92.6246 5.19538 6.95854 143.836 21.726 -86.3142 -6.36111e-015 1.59028e-015 3.18055e-015 -3.18055e-015 0 -0 4.61896e-007 -6.81846e-007 -2.16516e-007 -3.18055e-015 0 -0 3.18055e-015 1.11319e-014 3.18055e-015 -3.18055e-015 1.59028e-015 -0 4.61896e-007 -6.81846e-007 -2.16516e-007 3.18055e-015 1.11319e-014 3.18055e-015 -3.18055e-015 1.59028e-015 -0 4.61896e-007 -6.81846e-007 -2.16516e-007 -3.18055e-015 0 -0 3.18055e-015 1.11319e-014 3.18055e-015 -3.18055e-015 1.59028e-015 -0 4.61896e-007 -6.81846e-007 -2.16516e-007 3.18055e-015 1.11319e-014 3.18055e-015 -3.18055e-015 1.59028e-015 -0 4.61896e-007 -6.81846e-007 -2.16516e-007 20.928 27.974 5.25224 80.6538 -52.3351 50.3733 90.3783 4.38532 -6.9964 -144.711 22.8308 91.7656 1.10261e-006 6.74148e-008 1.82091e-006 4.60192e-007 6.86257e-007 -2.07784e-007 6.36111e-015 0 3.18055e-015 3.18055e-015 -4.77083e-015 -0 1.10261e-006 6.74148e-008 1.82091e-006 4.60192e-007 6.86257e-007 -2.07784e-007 -0 -1.59028e-015 -0 1.10261e-006 6.74148e-008 1.82091e-006 4.60192e-007 6.86257e-007 -2.07784e-007 -0 -1.59028e-015 -0 3.18055e-015 -4.77083e-015 -0 1.10261e-006 6.74148e-008 1.82091e-006 4.60192e-007 6.86257e-007 -2.07784e-007 -0 -1.59028e-015 -0 1.10261e-006 6.74148e-008 1.82091e-006 4.60192e-007 6.86257e-007 -2.07784e-007 -0 -1.59028e-015 -0 147.894 -63.0171 147.735 161.542 80.8088 -157.744 4.2939 -3.13439 12.9151 -145.865 -62.6301 -144.076 -159.231 81.7078 155.485 -2.49737 -1.84674 -11.675 
